<?xml version="1.0" encoding="utf-8"?><!DOCTYPE svg PUBLIC "-//W3C//DTD SVG 1.1//EN" "http://www.w3.org/Graphics/SVG/1.1/DTD/svg11.dtd">

<!-- Uploaded to: SVG Repo, www.svgrepo.com, Generator: SVG Repo Mixer Tools -->
<svg fill="#000000" width="800px" height="800px" viewBox="0 0 96 96" xmlns="http://www.w3.org/2000/svg">

<path d="M52.216 9.954C30.492 15.838 15.506 30.97 9.972 52.609 3.847 76.556 12.493 89.189 34 87.72c29.902-2.043 53.165-26.536 53.396-56.22.098-12.501-2.202-17.308-10.273-21.478-4.28-2.211-16.868-2.246-24.907-.068m.262 7.914C31.539 23.865 16 43.912 16 64.926 16 75.884 20.332 80 31.863 80c24.889 0 48.358-23.654 48.081-48.46-.161-14.315-9.315-18.872-27.466-13.672m4.782 15.334-3.202 3.201-2.556-2.401-2.557-2.402-2.672 2.673-2.673 2.672 2.402 2.557 2.401 2.556-3.172 3.173-3.173 3.172-2.556-2.401-2.557-2.402-2.672 2.673-2.673 2.672 2.385 2.539 2.385 2.539-3.396 3.504-3.397 3.505 2.696 2.695 2.695 2.696 3.505-3.397 3.504-3.396 2.539 2.385 2.539 2.385 2.672-2.673 2.673-2.672-2.402-2.557-2.401-2.556 3.172-3.173 3.173-3.172 2.556 2.401 2.557 2.402 2.672-2.673 2.673-2.672-2.385-2.539-2.385-2.539L63 38.5l3.37-3.477-2.359-2.512c-2.961-3.151-2.903-3.157-6.751.691" fill-rule="evenodd"/>

</svg>